#!OML:ASF H:\charlestonDancing\Project 1\Capture day 1\Session 1\femaleDancer.ASF
:FULLY-SPECIFIED
:DEGREES
171
root 0.727283 17.6922 4.41071 391.825 -81.5491 -375.374
lowerback 21.1375 -6.58135 2.21455
upperback 5.64304 -8.37972 -0.100858
thorax -5.87765 -4.20005 0.820209
lowerneck 6.81528 14.676 14.0433
upperneck -3.58929 20.3543 -16.1308
head 0.971268 10.4736 -6.71595
rclavicle 9.78021e-014 -3.33958e-014
rhumerus -43.7443 -17.3186 -57.2285
rradius 97.9466
rwrist -48.6358
rhand -17.8614 -35.8168
rfingers 7.12502
rthumb 8.40412 -65.6296
lclavicle 9.78021e-014 -3.33958e-014
lhumerus 21.5142 -9.76458 75.6614
lradius 77.0904
lwrist 3.3773
lhand -29.7831 6.96317
lfingers 7.12502
lthumb -3.10799 36.9203
rfemur -40.6149 -1.89013 26.8305
rtibia 42.8867
rfoot -14.2761 -0.386108
rtoes -18.7566
lfemur -22.0166 7.55979 -23.7336
ltibia 51.8682
lfoot -7.66943 4.73175
ltoes -31.7697
172
root 0.764771 17.6476 4.44208 389.01 -81.9455 -372.182
lowerback 20.7753 -6.44822 1.8591
upperback 5.45889 -8.28851 -0.232715
thorax -5.86261 -4.14963 0.822818
lowerneck 6.72318 14.4215 14.017
upperneck -3.57568 19.9989 -16.2828
head 0.95167 10.2966 -6.77864
rclavicle 4.92986e-014 -6.36111e-015
rhumerus -43.917 -17.045 -56.6816
rradius 98.2611
rwrist -49.1838
rhand -18.152 -36.1579
rfingers 7.12502
rthumb 8.12368 -65.9818
lclavicle 4.92986e-014 -6.36111e-015
lhumerus 20.8091 -10.7485 76.2191
lradius 76.5914
lwrist 3.62756
lhand -30.1258 6.21783
lfingers 7.12502
lthumb -3.43897 36.1698
rfemur -42.802 -2.07286 26.2043
rtibia 45.8211
rfoot -13.5573 -0.111702
rtoes -21.512
lfemur -19.3514 7.48753 -24.3495
ltibia 47.4086
lfoot -10.3958 1.99284
ltoes -28.2256
173
root 0.809673 17.6015 4.46782 386.197 -82.4511 -369.031
lowerback 20.5981 -6.28912 1.38456
upperback 5.24042 -8.17922 -0.32207
thorax -5.95712 -4.08745 0.954702
lowerneck 6.42695 14.284 12.9434
upperneck -3.65831 19.6912 -15.4444
head 0.732164 10.1227 -6.41065
rclavicle -1.11319e-014 5.56597e-015
rhumerus -44.05 -16.7986 -56.1214
rradius 98.6956
rwrist -49.5673
rhand -18.3655 -36.5444
rfingers 7.12502
rthumb 7.91754 -66.3761
lclavicle -1.11319e-014 5.56597e-015
lhumerus 19.5601 -11.6385 76.7684
lradius 76.0537
lwrist 3.45713
lhand -30.4071 5.56665
lfingers 7.12502
lthumb -3.7106 35.5141
rfemur -45.2823 -1.79956 25.4033
rtibia 49.2312
rfoot -12.1802 0.440936
rtoes -24.5013
lfemur -17.5947 7.61061 -24.9746
ltibia 43.6474
lfoot -12.1949 0.665467
ltoes -29.6974
174
root 0.85699 17.5503 4.48857 382.58 -82.7596 -365.122
lowerback 20.484 -6.24775 0.969191
upperback 5.07096 -8.20774 -0.364347
thorax -6.03208 -4.09259 1.14292
lowerneck 5.85555 14.2757 10.1306
upperneck -4.03323 19.4116 -13.0451
head 0.149462 9.93894 -5.38026
rclavicle 1.66979e-014 -4.6118e-014
rhumerus -44.0488 -16.545 -55.6001
rradius 99.2456
rwrist -49.8637
rhand -18.289 -36.7431
rfingers 7.12502
rthumb 7.99137 -66.5721
lclavicle 1.66979e-014 -4.6118e-014
lhumerus 17.8162 -12.1844 77.2944
lradius 75.5793
lwrist 2.22558
lhand -29.8535 5.47158
lfingers 7.12502
lthumb -3.17598 35.4277
rfemur -48.0362 -1.60157 24.5789
rtibia 52.8549
rfoot -9.97048 1.30712
rtoes -26.8055
lfemur -16.4244 7.73336 -25.621
ltibia 40.9178
lfoot -14.0863 -0.952903
ltoes -31.012
175
root 0.895238 17.5102 4.5006 376.97 -82.8648 -359.327
lowerback 20.4231 -6.26772 0.408805
upperback 4.93688 -8.34893 -0.438564
thorax -6.0795 -4.15106 1.40771
lowerneck 5.64088 14.2484 9.94681
upperneck -4.14379 19.3356 -13.326
head 0.154339 9.90604 -5.42634
rclavicle 3.4191e-014 -5.56597e-015
rhumerus -44.0615 -16.3124 -55.2199
rradius 99.8343
rwrist -50.0818
rhand -18.2638 -36.8263
rfingers 7.12502
rthumb 8.01571 -66.6543
lclavicle 3.4191e-014 -5.56597e-015
lhumerus 15.4682 -12.741 77.6495
lradius 75.1547
lwrist 0.627575
lhand -28.9618 5.48782
lfingers 7.12502
lthumb -2.31478 35.455
rfemur -50.7841 -1.55422 23.5853
rtibia 56.3834
rfoot -7.22725 2.18994
rtoes -27.5473
lfemur -15.5502 7.73653 -26.488
ltibia 38.8836
lfoot -15.4099 -1.90362
ltoes -31.9788
176
root 0.918634 17.4825 4.49776 370.641 -82.8565 -352.947
lowerback 20.4842 -6.21191 -0.339677
upperback 4.82549 -8.43323 -0.515795
thorax -6.13806 -4.17965 1.76882
lowerneck 5.66821 14.2202 10.4918
upperneck -4.1833 19.325 -14.2111
head 0.282445 9.91816 -5.74397
rclavicle 8.98507e-014 2.38542e-015
rhumerus -44.2857 -16.2547 -54.9007
rradius 100.446
rwrist -50.1958
rhand -18.4833 -36.9438
rfingers 7.12502
rthumb 7.8039 -66.7798
lclavicle 8.98507e-014 2.38542e-015
lhumerus 12.4775 -13.5414 78.0089
lradius 74.6911
lwrist -0.410657
lhand -28.4644 4.99075
lfingers 7.12502
lthumb -1.83448 34.9626
rfemur -53.1568 -1.40997 22.5361
rtibia 59.4483
rfoot -4.72847 2.49806
rtoes -26.9581
lfemur -14.79 7.68744 -27.3802
ltibia 37.4302
lfoot -15.934 -2.59148
ltoes -29.0827
177
root 0.919782 17.4651 4.49271 366.016 -82.7343 -348.384
lowerback 20.529 -6.13375 -0.846402
upperback 4.78958 -8.43683 -0.514087
thorax -6.12832 -4.17498 2.0541
lowerneck 5.76486 14.1701 11.3627
upperneck -4.1735 19.3165 -15.4747
head 0.486764 9.93819 -6.21462
rclavicle -4.21423e-014 -6.99722e-014
rhumerus -44.6652 -16.3849 -54.556
rradius 101.038
rwrist -50.2862
rhand -18.6726 -36.9177
rfingers 7.12502
rthumb 7.62119 -66.7603
lclavicle -4.21423e-014 -6.99722e-014
lhumerus 9.24692 -14.3276 78.584
lradius 73.5317
lwrist -1.35853
lhand -28.1908 4.92405
lfingers 7.12502
lthumb -1.57024 34.898
rfemur -54.8541 -1.27352 21.7596
rtibia 61.7176
rfoot -2.78196 2.06768
rtoes -25.3149
lfemur -14.0964 7.61967 -27.9878
ltibia 36.4571
lfoot -16.0298 -3.48709
ltoes -22.7559
178
root 0.889943 17.4643 4.50089 364.559 -82.5913 -347.156
lowerback 20.4304 -6.13164 -0.70344
upperback 4.86201 -8.40432 -0.482633
thorax -6.01466 -4.16601 1.98461
lowerneck 5.90395 14.1181 11.5073
upperneck -4.23389 19.2572 -15.9858
head 0.507556 9.9256 -6.39595
rclavicle 7.23576e-014 -1.11319e-014
rhumerus -44.9456 -16.6453 -54.3765
rradius 101.298
rwrist -50.1568
rhand -18.8583 -36.7399
rfingers 7.12502
rthumb 7.4419 -66.589
lclavicle 7.23576e-014 -1.11319e-014
lhumerus 5.86013 -14.9585 79.3264
lradius 71.3491
lwrist -2.4818
lhand -27.9955 4.96447
lfingers 7.12502
lthumb -1.38161 34.9397
rfemur -55.6135 -1.13652 21.4154
rtibia 62.9976
rfoot -3.45532 1.55674
rtoes -22.5033
lfemur -13.442 7.52286 -28.214
ltibia 35.8881
lfoot -16.0297 -3.13768
ltoes -22.0233
179
root 0.836225 17.4836 4.51883 366.573 -82.5983 -349.536
lowerback 20.2778 -6.17026 0.0356077
upperback 4.96215 -8.30267 -0.424868
thorax -5.92326 -4.12983 1.5944
lowerneck 6.3592 14.1113 11.6548
upperneck -4.27031 19.2788 -16.7249
head 0.520384 9.97138 -6.66345
rclavicle 5.40694e-014 -6.67916e-014
rhumerus -45.096 -16.9615 -54.3791
rradius 101.149
rwrist -49.7473
rhand -18.9917 -36.5934
rfingers 7.12502
rthumb 7.31319 -66.447
lclavicle 5.40694e-014 -6.67916e-014
lhumerus 2.13507 -15.2744 80.2689
lradius 68.3157
lwrist -3.77896
lhand -27.5239 5.03391
lfingers 7.12502
lthumb -0.926048 35.0116
rfemur -55.5828 -0.822683 21.6508
rtibia 63.2649
rfoot -5.03925 0.914705
rtoes -19.7428
lfemur -12.903 7.44393 -27.9904
ltibia 35.7368
lfoot -15.9564 -1.68198
ltoes -27.4334
180
root 0.766255 17.5128 4.53401 369.755 -82.8587 -353.124
lowerback 20.1293 -6.12244 0.773524
upperback 5.00734 -8.0909 -0.357696
thorax -5.88946 -4.03756 1.1919
lowerneck 6.41762 14.068 10.865
upperneck -3.8635 19.1932 -15.9696
head 0.46122 9.91302 -6.3411
rclavicle 8.18993e-014 1.90833e-014
rhumerus -45.3364 -17.2812 -54.458
rradius 100.834
rwrist -49.2611
rhand -18.9504 -36.4269
rfingers 7.12502
rthumb 7.35306 -66.2791
lclavicle 8.18993e-014 1.90833e-014
lhumerus -1.86076 -15.0945 81.4194
lradius 64.439
lwrist -5.23791
lhand -26.3051 6.46758
lfingers 7.12502
lthumb 0.25105 36.4472
rfemur -55.0599 -0.256963 22.1942
rtibia 62.6627
rfoot -6.91411 -0.00960613
rtoes -18.7068
lfemur -12.5311 7.2151 -27.5752
ltibia 36.1008
lfoot -15.7063 -0.246335
ltoes -31.3774
181
root 0.67474 17.5471 4.54216 373.586 -83.3922 -357.329
lowerback 19.8386 -5.97014 1.30843
upperback 4.97879 -7.79169 -0.363433
thorax -5.83966 -3.89986 0.790849
lowerneck 6.89719 14.0906 9.13941
upperneck -3.76591 19.1283 -14.0202
head 0.0379618 9.86287 -5.61763
rclavicle 8.11041e-014 -2.06736e-014
rhumerus -45.8403 -17.5511 -54.6942
rradius 100.524
rwrist -48.9674
rhand -19.0123 -36.3947
rfingers 7.12502
rthumb 7.29323 -66.249
lclavicle 8.11041e-014 -2.06736e-014
lhumerus -6.16213 -14.1796 82.5621
lradius 59.9155
lwrist -6.5921
lhand -24.5774 7.85576
lfingers 7.12502
lthumb 1.91974 37.8269
rfemur -54.1569 0.687204 22.7861
rtibia 61.3983
rfoot -7.95536 -0.987507
rtoes -18.6936
lfemur -12.4822 7.01625 -27.0949
ltibia 37.17
lfoot -15.1619 1.03406
ltoes -32.6175
182
root 0.562183 17.5811 4.54168 379.785 -83.9992 -363.773
lowerback 19.4112 -5.83505 1.85236
upperback 4.9617 -7.51345 -0.279992
thorax -5.68846 -3.7731 0.469383
lowerneck 7.07317 14.2223 11.434
upperneck -2.85548 19.5673 -16.2362
head 0.78466 10.1045 -6.47305
rclavicle 9.30312e-014 3.26007e-014
rhumerus -46.1492 -17.6776 -55.008
rradius 100.182
rwrist -48.8679
rhand -19.1483 -36.269
rfingers 7.12502
rthumb 7.16203 -66.1278
lclavicle 9.30312e-014 3.26007e-014
lhumerus -10.45 -11.9502 83.6508
lradius 54.9741
lwrist -7.94702
lhand -23.0873 8.72191
lfingers 7.12502
lthumb 3.35882 38.6752
rfemur -53.0393 1.98042 23.4779
rtibia 59.7157
rfoot -7.74667 -1.33772
rtoes -18.3798
lfemur -12.9354 7.22854 -26.4005
ltibia 38.9364
lfoot -13.8319 2.27145
ltoes -33.204
183
root 0.450218 17.5954 4.52582 383.633 -83.8045 -367.491
lowerback 18.794 -6.02332 2.39359
upperback 4.71759 -7.65218 -0.238117
thorax -5.69183 -3.84107 0.204012
lowerneck 7.36437 14.386 12.559
upperneck -2.26718 19.9595 -16.9855
head 1.15786 10.3077 -6.79742
rclavicle 1.59028e-015 3.73715e-014
rhumerus -46.6561 -17.61 -55.4659
rradius 99.7926
rwrist -48.7908
rhand -19.3265 -35.6471
rfingers 7.12502
rthumb 6.98997 -65.5116
lclavicle 1.59028e-015 3.73715e-014
lhumerus -14.8673 -8.73649 84.2395
lradius 49.7538
lwrist -9.31061
lhand -21.9292 9.89664
lfingers 7.12502
lthumb 4.47712 39.8293
rfemur -52.1222 2.68937 23.9953
rtibia 58.0037
rfoot -6.44529 -0.542754
rtoes -19.6083
lfemur -14.2943 7.03142 -25.7875
ltibia 41.5847
lfoot -11.7165 3.23299
ltoes -34.1647
184
root 0.295267 17.5915 4.51673 384.008 -83.6896 -368.515
lowerback 18.7224 -6.23103 2.74101
upperback 4.67492 -7.86945 -0.415206
thorax -5.77563 -3.94986 -0.122602
lowerneck 7.61074 14.5445 13.0211
upperneck -1.81059 20.2706 -16.8959
head 1.33474 10.4584 -6.80561
rclavicle -4.05521e-014 1.51076e-014
rhumerus -47.2882 -17.4527 -55.9254
rradius 99.374
rwrist -48.8782
rhand -19.5939 -34.9268
rfingers 7.12502
rthumb 6.73189 -64.7998
lclavicle -4.05521e-014 1.51076e-014
lhumerus -19.2408 -5.00412 84.1693
lradius 44.5948
lwrist -10.0051
lhand -21.9894 10.9425
lfingers 7.12502
lthumb 4.41903 40.8764
rfemur -49.9342 2.99493 24.3853
rtibia 56.4624
rfoot -6.20401 1.44649
rtoes -20.0905
lfemur -15.0599 7.23033 -25.3451
ltibia 45.188
lfoot -9.76453 3.73064
ltoes -34.2064
185
root 0.134772 17.5545 4.51406 381.181 -83.6198 -366.278
lowerback 18.5376 -6.44782 2.92669
upperback 4.59793 -8.14051 -0.729944
thorax -5.84206 -4.08367 -0.501442
lowerneck 7.72185 14.7049 13.5055
upperneck -1.26125 20.5821 -16.7414
head 1.55679 10.6019 -6.78049
rclavicle 1.59028e-015 -7.95139e-015
rhumerus -48.1936 -17.1788 -56.1791
rradius 99.1028
rwrist -49.1054
rhand -19.6647 -34.3507
rfingers 7.12502
rthumb 6.66347 -64.2259
lclavicle 1.59028e-015 -7.95139e-015
lhumerus -23.8095 -0.662608 83.2467
lradius 40.0017
lwrist -10.3355
lhand -23.2906 11.8263
lfingers 7.12502
lthumb 3.16243 41.7826
rfemur -47.6629 2.59377 24.6245
rtibia 55.1877
rfoot -6.27701 4.01696
rtoes -19.0954
lfemur -16.4142 7.52977 -25.3075
ltibia 49.7011
lfoot -7.4115 4.48735
ltoes -32.6499
